<svg width="306" height="407" viewBox="0 0 306 407" fill="none" xmlns="http://www.w3.org/2000/svg">
<path fill-rule="evenodd" clip-rule="evenodd" d="M163.346 30.5454V40.7H142.997V20.35H163.346V30.5454Z" fill="#1A3B66"/>
<path fill-rule="evenodd" clip-rule="evenodd" d="M224.397 30.5454V40.7H204.046V20.35H224.397V30.5454Z" fill="#B8B9B9"/>
<path fill-rule="evenodd" clip-rule="evenodd" d="M244.747 10.1954V20.35H224.396V0H244.747V10.1954Z" fill="#1252A3"/>
<path fill-rule="evenodd" clip-rule="evenodd" d="M265.097 30.5454V40.7H244.747V20.35H265.097V30.5454Z" fill="#26FF75"/>
<path fill-rule="evenodd" clip-rule="evenodd" d="M285.446 30.5454V40.7H265.097V20.35H285.446V30.5454Z" fill="#1252A3"/>
<path fill-rule="evenodd" clip-rule="evenodd" d="M81.9464 50.8954V61.05H61.5964V40.7H81.9464V50.8954Z" fill="#B8B9B9"/>
<path fill-rule="evenodd" clip-rule="evenodd" d="M142.997 10.1954V20.35H122.647V0H142.997V10.1954Z" fill="#E1E1E1"/>
<path fill-rule="evenodd" clip-rule="evenodd" d="M102.296 10.1954V20.35H81.9464V0H102.296V10.1954Z" fill="#E1E1E1"/>
<path fill-rule="evenodd" clip-rule="evenodd" d="M20.8967 10.1954V20.35H0.546387V0H20.8967V10.1954Z" fill="#26FF75"/>
<path fill-rule="evenodd" clip-rule="evenodd" d="M163.346 71.2453V81.4H142.997V61.05H163.346V71.2453Z" fill="#26FF75"/>
<path fill-rule="evenodd" clip-rule="evenodd" d="M204.046 71.2453V81.4H183.696V61.05H204.046V71.2453Z" fill="#1A3B66"/>
<path fill-rule="evenodd" clip-rule="evenodd" d="M224.397 71.2453V81.4H204.046V61.05H224.397V71.2453Z" fill="#1252A3"/>
<path fill-rule="evenodd" clip-rule="evenodd" d="M244.747 71.2453V81.4H224.396V61.05H244.747V71.2453Z" fill="#E1E1E1"/>
<path fill-rule="evenodd" clip-rule="evenodd" d="M265.097 50.8954V61.05H244.747V40.7H265.097V50.8954Z" fill="#1252A3"/>
<path fill-rule="evenodd" clip-rule="evenodd" d="M265.097 71.2453V81.4H244.747V61.05H265.097V71.2453Z" fill="#1A3B66"/>
<path fill-rule="evenodd" clip-rule="evenodd" d="M285.446 50.8954V61.05H265.097V40.7H285.446V50.8954Z" fill="#1252A3"/>
<path fill-rule="evenodd" clip-rule="evenodd" d="M285.446 71.2453V81.4H265.097V61.05H285.446V71.2453Z" fill="#E1E1E1"/>
<path fill-rule="evenodd" clip-rule="evenodd" d="M305.796 50.8954V61.05H285.446V40.7H305.796V50.8954Z" fill="#1252A3"/>
<path fill-rule="evenodd" clip-rule="evenodd" d="M142.997 91.5953V101.75H122.647V81.4H142.997V91.5953Z" fill="#26FF75"/>
<path fill-rule="evenodd" clip-rule="evenodd" d="M224.397 91.5953V101.75H204.046V81.4H224.397V91.5953Z" fill="#B8B9B9"/>
<path fill-rule="evenodd" clip-rule="evenodd" d="M265.097 91.5953V101.75H244.747V81.4H265.097V91.5953Z" fill="#1252A3"/>
<path fill-rule="evenodd" clip-rule="evenodd" d="M265.097 111.945V122.1H244.747V101.75H265.097V111.945Z" fill="#E1E1E1"/>
<path fill-rule="evenodd" clip-rule="evenodd" d="M285.446 91.5953V101.75H265.097V81.4H285.446V91.5953Z" fill="#26FF75"/>
<path fill-rule="evenodd" clip-rule="evenodd" d="M285.446 111.945V122.1H265.097V101.75H285.446V111.945Z" fill="#1252A3"/>
<path fill-rule="evenodd" clip-rule="evenodd" d="M305.796 111.945V122.1H285.446V101.75H305.796V111.945Z" fill="#26FF75"/>
<path fill-rule="evenodd" clip-rule="evenodd" d="M183.697 132.295V142.45H163.346V122.1H183.697V132.295Z" fill="#B8B9B9"/>
<path fill-rule="evenodd" clip-rule="evenodd" d="M204.046 152.645V162.8H183.696V142.45H204.046V152.645Z" fill="#26FF75"/>
<path fill-rule="evenodd" clip-rule="evenodd" d="M244.747 132.295V142.45H224.396V122.1H244.747V132.295Z" fill="#E1E1E1"/>
<path fill-rule="evenodd" clip-rule="evenodd" d="M265.097 132.295V142.45H244.747V122.1H265.097V132.295Z" fill="#1252A3"/>
<path fill-rule="evenodd" clip-rule="evenodd" d="M265.097 152.645V162.8H244.747V142.45H265.097V152.645Z" fill="#26FF75"/>
<path fill-rule="evenodd" clip-rule="evenodd" d="M285.446 152.645V162.8H265.097V142.45H285.446V152.645Z" fill="#1252A3"/>
<path fill-rule="evenodd" clip-rule="evenodd" d="M305.796 132.295V142.45H285.446V122.1H305.796V132.295Z" fill="#1252A3"/>
<path fill-rule="evenodd" clip-rule="evenodd" d="M305.796 152.645V162.8H285.446V142.45H305.796V152.645Z" fill="#26FF75"/>
<path fill-rule="evenodd" clip-rule="evenodd" d="M122.647 172.995V183.15H102.296V162.8H122.647V172.995Z" fill="#E1E1E1"/>
<path fill-rule="evenodd" clip-rule="evenodd" d="M163.346 193.345V203.5H142.997V183.15H163.346V193.345Z" fill="#1A3B66"/>
<path fill-rule="evenodd" clip-rule="evenodd" d="M183.697 172.995V183.15H163.346V162.8H183.697V172.995Z" fill="#26FF75"/>
<path fill-rule="evenodd" clip-rule="evenodd" d="M224.397 172.995V183.15H204.046V162.8H224.397V172.995Z" fill="#1A3B66"/>
<path fill-rule="evenodd" clip-rule="evenodd" d="M102.296 193.345V203.5H81.9464V183.15H102.296V193.345Z" fill="#26FF75"/>
<path fill-rule="evenodd" clip-rule="evenodd" d="M41.2465 152.645V162.8H20.8965V142.45H41.2465V152.645Z" fill="#1A3B66"/>
<path fill-rule="evenodd" clip-rule="evenodd" d="M20.8967 254.395V264.55H0.546387V244.2H20.8967V254.395Z" fill="#1252A3"/>
<path fill-rule="evenodd" clip-rule="evenodd" d="M81.9464 254.395V264.55H61.5964V244.2H81.9464V254.395Z" fill="#1252A3"/>
<path fill-rule="evenodd" clip-rule="evenodd" d="M61.5964 315.445V325.6H41.2466V305.25H61.5964V315.445Z" fill="#1A3B66"/>
<path fill-rule="evenodd" clip-rule="evenodd" d="M41.2465 335.795V345.95H20.8965V325.6H41.2465V335.795Z" fill="#26FF75"/>
<path fill-rule="evenodd" clip-rule="evenodd" d="M81.9464 396.845V407H61.5964V386.65H81.9464V396.845Z" fill="#26FF75"/>
<path fill-rule="evenodd" clip-rule="evenodd" d="M244.747 172.995V183.15H224.396V162.8H244.747V172.995Z" fill="#1252A3"/>
<path fill-rule="evenodd" clip-rule="evenodd" d="M265.097 193.345V203.5H244.747V183.15H265.097V193.345Z" fill="#1252A3"/>
<path fill-rule="evenodd" clip-rule="evenodd" d="M285.446 172.995V183.15H265.097V162.8H285.446V172.995Z" fill="#E1E1E1"/>
<path fill-rule="evenodd" clip-rule="evenodd" d="M305.796 193.345V203.5H285.446V183.15H305.796V193.345Z" fill="#1252A3"/>
<path fill-rule="evenodd" clip-rule="evenodd" d="M142.997 234.045V244.2H122.647V223.85H142.997V234.045Z" fill="#B8B9B9"/>
<path fill-rule="evenodd" clip-rule="evenodd" d="M183.697 234.045V244.2H163.346V223.85H183.697V234.045Z" fill="#26FF75"/>
<path fill-rule="evenodd" clip-rule="evenodd" d="M244.747 213.695V223.85H224.396V203.5H244.747V213.695Z" fill="#1A3B66"/>
<path fill-rule="evenodd" clip-rule="evenodd" d="M244.747 234.045V244.2H224.396V223.85H244.747V234.045Z" fill="#1252A3"/>
<path fill-rule="evenodd" clip-rule="evenodd" d="M265.097 213.695V223.85H244.747V203.5H265.097V213.695Z" fill="#26FF75"/>
<path fill-rule="evenodd" clip-rule="evenodd" d="M305.796 213.695V223.85H285.446V203.5H305.796V213.695Z" fill="#1252A3"/>
<path fill-rule="evenodd" clip-rule="evenodd" d="M183.697 274.745V284.9H163.346V264.55H183.697V274.745Z" fill="#E1E1E1"/>
<path fill-rule="evenodd" clip-rule="evenodd" d="M204.046 254.395V264.55H183.696V244.2H204.046V254.395Z" fill="#E1E1E1"/>
<path fill-rule="evenodd" clip-rule="evenodd" d="M244.747 274.745V284.9H224.396V264.55H244.747V274.745Z" fill="#1252A3"/>
<path fill-rule="evenodd" clip-rule="evenodd" d="M285.446 254.395V264.55H265.097V244.2H285.446V254.395Z" fill="#1252A3"/>
<path fill-rule="evenodd" clip-rule="evenodd" d="M285.446 274.745V284.9H265.097V264.55H285.446V274.745Z" fill="#1252A3"/>
<path fill-rule="evenodd" clip-rule="evenodd" d="M305.796 254.395V264.55H285.446V244.2H305.796V254.395Z" fill="#B8B9B9"/>
<path fill-rule="evenodd" clip-rule="evenodd" d="M305.796 274.745V284.9H285.446V264.55H305.796V274.745Z" fill="#1252A3"/>
<path fill-rule="evenodd" clip-rule="evenodd" d="M102.296 295.095V305.25H81.9464V284.9H102.296V295.095Z" fill="#26FF75"/>
<path fill-rule="evenodd" clip-rule="evenodd" d="M142.997 315.445V325.6H122.647V305.25H142.997V315.445Z" fill="#E1E1E1"/>
<path fill-rule="evenodd" clip-rule="evenodd" d="M204.046 295.095V305.25H183.696V284.9H204.046V295.095Z" fill="#1252A3"/>
<path fill-rule="evenodd" clip-rule="evenodd" d="M204.046 315.445V325.6H183.696V305.25H204.046V315.445Z" fill="#26FF75"/>
<path fill-rule="evenodd" clip-rule="evenodd" d="M244.747 295.095V305.25H224.396V284.9H244.747V295.095Z" fill="#B8B9B9"/>
<path fill-rule="evenodd" clip-rule="evenodd" d="M265.097 315.445V325.6H244.747V305.25H265.097V315.445Z" fill="#1252A3"/>
<path fill-rule="evenodd" clip-rule="evenodd" d="M305.796 315.445V325.6H285.446V305.25H305.796V315.445Z" fill="#1A3B66"/>
<path fill-rule="evenodd" clip-rule="evenodd" d="M163.346 335.795V345.95H142.997V325.6H163.346V335.795Z" fill="#1A3B66"/>
<path fill-rule="evenodd" clip-rule="evenodd" d="M285.446 356.145V366.3H265.097V345.95H285.446V356.145Z" fill="#B8B9B9"/>
<path fill-rule="evenodd" clip-rule="evenodd" d="M305.796 356.145V366.3H285.446V345.95H305.796V356.145Z" fill="#1252A3"/>
<path fill-rule="evenodd" clip-rule="evenodd" d="M122.647 376.495V386.65H102.296V366.3H122.647V376.495Z" fill="#1A3B66"/>
<path fill-rule="evenodd" clip-rule="evenodd" d="M183.697 396.845V407H163.346V386.65H183.697V396.845Z" fill="#B8B9B9"/>
<path fill-rule="evenodd" clip-rule="evenodd" d="M265.097 376.495V386.65H244.747V366.3H265.097V376.495Z" fill="#26FF75"/>
<path fill-rule="evenodd" clip-rule="evenodd" d="M285.446 376.495V386.65H265.097V366.3H285.446V376.495Z" fill="#1252A3"/>
<path fill-rule="evenodd" clip-rule="evenodd" d="M305.796 396.845V407H285.446V386.65H305.796V396.845Z" fill="#26FF75"/>
</svg>