<svg width="100" height="100" viewBox="0 0 100 100" fill="none" xmlns="http://www.w3.org/2000/svg">
<circle cx="50" cy="50" r="26" fill="#E8F0FF" stroke="#2B5DD7" stroke-width="2"/>
<path d="M90 79.1406C90 85.1433 85.14 90 79.1331 90H20.8669C14.8601 90 10 85.1433 10 79.1406V20.8595C10 14.8568 14.8601 10 20.8669 10H79.1331C85.14 10 90 14.8568 90 20.8595V79.1406Z" stroke="#2B5DD7" stroke-width="4" stroke-linecap="round" stroke-linejoin="round"/>
<path d="M40.7329 40.5656C40.7329 40.5656 40.8651 37.6584 43.9485 35.1916C45.7985 33.694 48.001 33.2975 49.9832 33.2535C51.7892 33.2094 53.419 33.5177 54.344 34.0023C56.0178 34.7952 59.2334 36.6893 59.2334 40.7858C59.2334 45.1026 56.4143 47.0407 53.2428 49.1991C50.0713 51.3575 49.1903 53.6921 49.1903 56.0707" stroke="#2B5DD7" stroke-width="2" stroke-linecap="round" stroke-linejoin="round"/>
<path d="M49.4105 64.396C49.8484 64.396 50.2035 64.0411 50.2035 63.6032C50.2035 63.1653 49.8484 62.8103 49.4105 62.8103C48.9727 62.8103 48.6177 63.1653 48.6177 63.6032C48.6177 64.0411 48.9727 64.396 49.4105 64.396Z" stroke="#2B5DD7" stroke-width="2" stroke-linecap="round" stroke-linejoin="round"/>
</svg>
