<svg width="200" height="200" viewBox="0 0 200 200" fill="none" xmlns="http://www.w3.org/2000/svg">
<path d="M100 21.5C83.5274 21.5 68.2385 26.5751 55.6129 35.2473L55.4075 35.3884L55.3965 35.6374C55.2767 38.3471 54.8624 40.79 54.4279 42.9955C54.3119 43.5844 54.1964 44.1483 54.085 44.6925L54.0803 44.7156C53.6891 46.6259 53.3447 48.3083 53.2293 49.889C53.0846 51.8717 53.3199 53.5406 54.2483 55.0713C55.1871 56.6192 56.9095 58.149 59.9847 59.6865C64.8753 62.1318 70.9528 61.7344 74.5193 60.7941C77.6376 59.972 78.9411 59.2643 81.0179 58.1357C81.8341 57.6921 82.7695 57.1838 83.9898 56.5736C84.0317 56.5526 84.0752 56.5346 84.1197 56.5196L95.6138 52.6742C95.6809 52.6517 95.7502 52.6364 95.8206 52.6286C99.3959 52.2313 102.33 52.8446 104.965 53.3976L104.968 53.3983C105.538 53.5179 106.097 53.6353 106.642 53.7376C109.714 54.3138 112.689 54.524 116.674 52.7121C116.714 52.6941 116.755 52.6786 116.796 52.6659C117.655 52.4043 118.113 52.0754 118.354 51.7778C118.579 51.4999 118.684 51.1642 118.66 50.714C118.633 50.2012 118.446 49.6159 118.148 48.9842C117.847 48.3462 117.418 47.6287 116.875 46.8437C116.11 45.7368 115.232 44.6467 114.397 43.6102L114.39 43.6015C114.081 43.2186 113.779 42.843 113.488 42.4739C112.963 41.8084 112.477 41.166 112.121 40.5959C111.943 40.3101 111.782 40.0207 111.665 39.7385C111.551 39.4664 111.449 39.1378 111.449 38.7902C111.449 35.5576 113.915 33.723 116.207 32.7454C118.524 31.7574 121.04 31.4622 121.97 31.4622C122.169 31.4622 122.361 31.4624 122.546 31.4625L122.569 31.4625C123.909 31.4636 124.942 31.4645 125.798 31.4022C126.764 31.3318 127.388 31.186 127.869 30.9341C128.633 30.5352 129.224 29.7829 130.065 28.0364L130.295 27.5585L129.805 27.3569C120.614 23.5816 110.549 21.5 100 21.5Z" fill="#E8F0FF"/>
<path d="M165.177 73.6003C161.77 73.2007 159.155 73.2239 157.004 73.9576C154.902 74.6748 153.135 76.1106 151.507 78.784C150.226 80.8879 148.53 83.0505 146.853 85.1877C146.567 85.552 146.282 85.9158 146 86.2773C144.036 88.7975 142.192 91.2755 141.002 93.723C139.817 96.1624 139.338 98.4538 139.942 100.644C140.546 102.834 142.291 105.136 146.016 107.466C146.548 107.799 147.331 108.078 148.354 108.441C149.326 108.786 150.463 109.193 151.498 109.774C152.542 110.359 153.548 111.154 154.22 112.318C154.9 113.495 155.181 114.951 154.941 116.747C154.515 119.944 154.344 122.813 154.484 125.159C154.625 127.54 155.08 129.234 155.774 130.212C157.756 133.001 157.652 136.586 157.557 139.414L157.546 139.722C157.497 141.233 157.469 142.488 157.668 143.479C157.761 143.942 157.895 144.314 158.091 144.608C158.294 144.912 158.546 145.107 158.829 145.24C161.051 146.282 162.502 146.329 163.39 146.123L163.573 146.081L163.683 145.929C173.006 133.017 178.5 117.156 178.5 100.013C178.5 91.5332 177.156 83.3668 174.669 75.7155L174.586 75.4624L174.33 75.3893C172.311 74.8125 169.072 74.0571 165.177 73.6003Z" fill="#E8F0FF"/>
<path d="M64.3643 156.418L63.4364 159.785L63.4371 159.783L63.4376 159.782L63.4406 159.775C63.6469 159.315 63.8329 158.9 63.9835 158.556C64.1629 158.146 64.3519 157.709 64.5497 157.25C65.335 155.43 66.2637 153.278 67.3351 151.186C68.6761 148.566 70.2912 145.934 72.2351 144.044C73.356 142.955 75.0473 142.33 76.9482 141.931C78.8749 141.526 81.1744 141.324 83.6491 141.19C85.1388 141.109 86.6853 141.053 88.2695 140.996L88.2776 140.996L88.2887 140.995C92.0395 140.86 95.9984 140.716 99.8224 140.221C102.475 139.877 104.174 139.245 105.238 138.514C106.272 137.804 106.738 136.983 106.913 136.131C107.096 135.241 106.977 134.241 106.688 133.193C106.427 132.244 106.053 131.337 105.708 130.502L105.598 130.237C105.272 129.443 104.884 128.691 104.485 127.916L104.475 127.897C103.207 125.436 101.714 122.537 101.146 116.463C100.755 112.283 102.317 107.992 103.869 104.355C104.191 103.599 104.506 102.889 104.806 102.209L104.808 102.205L104.808 102.204L104.809 102.202C105.257 101.19 105.676 100.243 106.039 99.3311C106.642 97.8152 106.983 96.6417 106.983 95.7861C106.983 94.9218 106.679 93.7401 106.07 92.4091C105.469 91.0942 104.603 89.7037 103.56 88.4366C101.43 85.8483 98.7648 84.0101 96.2997 84.0101C92.8509 84.0101 87.9822 85.2869 83.5023 87.0027L83.3369 87.6026C81.2571 88.4133 79.3055 89.3029 77.6775 90.1705C75.9319 91.1008 74.6538 91.9561 73.9689 92.6114C64.9737 101.218 58.5793 104.839 53.5487 105.12C48.2876 105.415 45.0226 102.066 42.4161 98.5569C41.7567 97.669 41.1186 96.7414 40.4945 95.8326L40.4448 95.7603C39.8328 94.869 39.2331 93.9956 38.6135 93.1526C37.3364 91.415 36.0364 89.894 34.547 88.774C33.0827 87.6729 31.4326 86.9574 29.4137 86.8334C27.6515 86.7252 25.5234 87.0628 22.9029 88.1051C22.3084 91.9874 22 95.964 22 100.013C22 128.473 37.2384 153.375 60.0002 167C60.3521 165.777 60.9314 164.305 61.5091 162.934C62.0065 161.754 62.5414 160.559 62.9801 159.58L62.9814 159.577L62.9843 159.571C63.1909 159.11 63.376 158.697 63.5255 158.355C63.7043 157.947 63.8927 157.511 64.0907 157.052C64.1799 156.845 64.2711 156.634 64.3643 156.418Z" fill="#E8F0FF"/>
<circle cx="100" cy="100" r="80" stroke="#175DDC" stroke-width="4"/>
<path d="M21 87.2778C47.9822 74.9379 37.0278 125.864 72.932 91.5161C76.2764 88.3167 89.0324 83 96.2997 83C102.142 83 107.983 91.5161 107.983 95.7742C107.983 100.032 101.411 108.548 102.142 116.355C102.872 124.161 105.063 126.29 106.523 129.839C107.983 133.387 110.904 139.774 99.9509 141.194C88.9973 142.613 76.5832 141.194 72.932 144.742C69.2808 148.29 66.7093 154.806 64.8994 158.935C63.9263 161.156 61.735 165.796 61.2482 168.161V171" stroke="#175DDC" stroke-width="3" stroke-linejoin="round"/>
<path d="M54.431 34.0882C54.431 47.0372 46.8647 54.2396 59.5376 60.575C64.7251 63.1683 71.0758 62.7298 74.7741 61.7549C79.25 60.575 80.2869 59.5375 84.4369 57.4625L95.931 53.6177C104.273 52.6907 108.608 57.472 117.088 53.6177C124.899 51.2375 112.449 41.3499 112.449 38.7875C112.449 33.5594 120.343 32.4608 121.97 32.4608C128.439 32.4608 129.214 32.648 131.735 26.7647" stroke="#175DDC" stroke-width="3" stroke-linejoin="round"/>
<path d="M176.49 75.0227C175.055 74.484 170.806 73.2451 165.294 72.5987C158.404 71.7908 154.098 72.5987 150.653 78.2546C144.797 87.8691 130.099 98.677 145.485 108.3C148.069 109.916 154.811 110.136 153.95 116.6C153.089 123.064 153.237 128.35 154.959 130.774C158.61 135.911 154.394 144.244 158.404 146.125C162.538 148.065 164.72 146.933 165.294 146.125" stroke="#175DDC" stroke-width="3"/>
</svg>
