<svg width="200" height="200" viewBox="0 0 200 200" fill="none" xmlns="http://www.w3.org/2000/svg">
<path d="M68.8346 142.05H180.031C180.945 142.05 181.737 140.351 181.676 138.227V79.6011C181.676 77.477 180.945 75.7776 180.031 75.7776H134.232C134.232 82.7131 133.462 93.5016 124.214 107.373C114.967 121.243 97.2431 124.326 86.4546 125.867C77.8238 127.1 70.015 124.326 67.1895 122.785V138.227C67.1895 140.351 67.9206 142.05 68.8346 142.05Z" fill="#E8F0FF"/>
<path d="M34.404 76.8635C34.404 103.85 56.767 125.727 84.3533 125.727C111.94 125.727 134.303 103.85 134.303 76.8635C134.303 49.8769 111.94 28 84.3533 28C56.767 28 34.404 49.8769 34.404 76.8635Z" stroke="#175DDC" stroke-width="4" stroke-linecap="round" stroke-linejoin="round"/>
<path d="M57.7769 118.126C57.7769 117.021 56.8814 116.126 55.7769 116.126C54.6723 116.126 53.7769 117.021 53.7769 118.126H57.7769ZM189.07 66.6611C191.349 66.6611 193.11 68.4785 193.11 70.6437H197.11C197.11 66.2678 193.556 62.6611 189.07 62.6611V66.6611ZM193.11 70.6437V148.656H197.11V70.6437H193.11ZM193.11 148.656C193.11 150.867 191.303 152.639 189.07 152.639V156.639C193.441 156.639 197.11 153.147 197.11 148.656H193.11ZM189.07 152.639H61.8173V156.639H189.07V152.639ZM61.8173 152.639C59.5385 152.639 57.7769 150.822 57.7769 148.656H53.7769C53.7769 153.032 57.3309 156.639 61.8173 156.639V152.639ZM57.7769 148.656V118.126H53.7769V148.656H57.7769ZM133.217 66.6611H189.07V62.6611H133.217V66.6611Z" fill="#175DDC"/>
<path d="M133.281 75.2468H182.606V142.289H66.4951V122.287" stroke="#175DDC" stroke-width="2" stroke-linejoin="round"/>
<path d="M95.0762 172.282H155.811" stroke="#175DDC" stroke-width="4" stroke-linecap="round" stroke-linejoin="round"/>
<path d="M114.726 154.639V172.282" stroke="#175DDC" stroke-width="4" stroke-linejoin="round"/>
<path d="M134.375 154.639V172.282" stroke="#175DDC" stroke-width="4" stroke-linejoin="round"/>
<path d="M68.8975 58.261L49.486 77.4328L68.8975 96.6046" stroke="#175DDC" stroke-width="4" stroke-linecap="round" stroke-linejoin="round"/>
<path d="M99.5391 97.2903L118.95 78.1186L99.5391 58.9468" stroke="#175DDC" stroke-width="4" stroke-linecap="round" stroke-linejoin="round"/>
<path d="M88.6966 62.7473L80.0098 95.323" stroke="#175DDC" stroke-width="4" stroke-linecap="round"/>
<path d="M44.3902 108.552L36.7488 116.194L7.53553 145.407C5.58291 147.36 5.58292 150.525 7.53554 152.478L9.74991 154.692C11.7025 156.645 14.8684 156.645 16.821 154.692L46.0342 125.479L53.6756 117.838" stroke="#175DDC" stroke-width="4" stroke-linecap="round" stroke-linejoin="round"/>
</svg>
