<svg width="100" height="100" viewBox="0 0 100 100" fill="none" xmlns="http://www.w3.org/2000/svg">
<path d="M66.4479 64.8769L86.3915 44.9333L89.9999 48.5905L70.105 68.5341L64.3999 70.5333L66.4479 64.8769Z" stroke="#2B5DD7" stroke-width="2" stroke-linecap="round" stroke-linejoin="round"/>
<path d="M81.4667 65.2844V75.7655C81.4667 81.128 77.125 85.4667 71.7589 85.4667H19.7078C14.3417 85.4667 10 81.128 10 75.7655V23.7012C10 18.3387 14.3417 14 19.7078 14H71.7589C77.125 14 81.4667 18.3387 81.4667 23.7012V44.3221" stroke="#2B5DD7" stroke-width="4" stroke-linecap="round" stroke-linejoin="round"/>
<path d="M21.7334 53.4667H64.4001" stroke="#2B5DD7" stroke-width="2" stroke-linecap="round" stroke-linejoin="round"/>
<path d="M21.7334 63.0667H56.9334" stroke="#2B5DD7" stroke-width="2" stroke-linecap="round" stroke-linejoin="round"/>
<path d="M21.7334 72.6667H56.9334" stroke="#2B5DD7" stroke-width="2" stroke-linecap="round" stroke-linejoin="round"/>
<path d="M66.6667 24.6667H23.7334C22.6288 24.6667 21.7334 25.5621 21.7334 26.6667V41.8667C21.7334 42.9712 22.6288 43.8667 23.7334 43.8667H66.6667C67.7713 43.8667 68.6667 42.9712 68.6667 41.8667V26.6667C68.6667 25.5621 67.7713 24.6667 66.6667 24.6667Z" fill="#E8F0FF" stroke="#2B5DD7" stroke-width="2" stroke-linecap="round" stroke-linejoin="round"/>
</svg>
